<svg xmlns="http://www.w3.org/2000/svg" width="313.023" height="455.596" viewBox="0 0 313.023 455.596">
  <g id="Grupo_115" data-name="Grupo 115" transform="translate(-1533.357 -613.14)">
    <g id="Grupo_94" data-name="Grupo 94" transform="translate(1397.934 548.559)" opacity="0.5">
      <path id="Trazado_100" data-name="Trazado 100" d="M402.236,401.163c61.329,27.226,61.65,71.371.73,98.592s-160.02,27.231-221.349.006-61.628-71.371-.708-98.6S340.918,373.937,402.236,401.163Z" transform="translate(0 0)" fill="#eba09a" opacity="0.6"/>
    </g>
    <g id="Grupo_17" data-name="Grupo 17" transform="translate(1533.737 613.14)">
      <g id="Grupo_13" data-name="Grupo 13" transform="translate(0 66.841)">
        <g id="Grupo_6" data-name="Grupo 6">
          <path id="Trazado_16" data-name="Trazado 16" d="M736.38,572.032a9.324,9.324,0,0,0-1.435-4.547c-.995-1.264-3.087-1.817-4.21-.664-2.75,2.752-1.582,3.03-5.34,2.349-5.542-1.006-10.058-7.387-14.555-2.428-4.372,4.821-.833,6.856,3.691,8.961,3.561,1.663,7.53,3.121,10.238,6.106,1.781,1.966,7.028,10.432,7.028,12.733a2.659,2.659,0,0,0,.929,1.091,2.513,2.513,0,0,0,2.434-.468C744.5,589.189,737.652,580.815,736.38,572.032Z" transform="translate(-708.846 -564.877)" fill="#eacdb0"/>
          <path id="Trazado_17" data-name="Trazado 17" d="M763.1,613.44c-7.445-10.2-13.18-21.8-20.875-31.639-3.689-4.714-3.565-6.593-10.125-7.183-1.635-.149-15.15,3.5-14.856,4.682a580.116,580.116,0,0,0,24.124,75.045c5.822,14.621,15.99,10.522,29.878,10.348q22.25-.282,44.5-.562c8.152-.1,17.409-.707,22.587-7.005,5.978-7.266,9.341-21.585,8.271-30.689-1.9-16.16-13.572-15-26.287-13.056q-21.644,3.315-43.284,6.629c-2.677.41-5.543.8-7.985-.376a13.335,13.335,0,0,1-4.477-4.225Q763.824,614.434,763.1,613.44Z" transform="translate(-701.454 -556.299)" fill="#fff"/>
        </g>
        <g id="Grupo_10" data-name="Grupo 10" transform="translate(42.572 52.162)">
          <path id="Trazado_18" data-name="Trazado 18" d="M746.09,730.108c1.584-13.69,8.444-24.559,21.122-30.51,10.284-4.827,21.841-5.961,33.106-7.407,25.093-3.22,49.046-6.439,74.381-5.444,20.259.8,32.745,18.082,42.227,35.13,5.976,10.744,4.317,15.784-3.207,24.782a90.952,90.952,0,0,1-24.758,20.7c-18.618,10.579-47.223,7.964-67.728,5.679a158.211,158.211,0,0,1-55.559-16.954C754.562,750.28,744.547,743.439,746.09,730.108Z" transform="translate(-718.744 -509.831)" fill="#142538"/>
          <path id="Trazado_19" data-name="Trazado 19" d="M820.991,736.316a239.5,239.5,0,0,1,8.8,24.105c1.322,4.332,2.532,8.786,2.365,13.312-.393,10.594-12.18,18.27-19.888,8.474a53.22,53.22,0,0,1-8-14.22c-2.825-7.539,3.141-3.147,8.182-5.462,5.8-2.667,5.666-4.74,3.2-10.18-3.175-7.007-6.933-11.574-6.482-19.636.124-2.227.752-4.81,2.8-5.681a4.507,4.507,0,0,1,4.659,1.136,12.763,12.763,0,0,1,2.665,4.276Q820.16,734.372,820.991,736.316Z" transform="translate(-667.992 -474.416)" fill="#1a3151"/>
          <path id="Trazado_20" data-name="Trazado 20" d="M826.781,594.181c-9.542-1.273-19.232-3-27.226.482-6.772,2.951-6.655,11.5-8.169,17.964-5.009,21.383-8.773,43.024-11.719,64.784-1.409,10.4-3.845,21.541-3.785,32.047.049,8.431,2.159,16.626,1.51,25.219-.5,6.6-3.3,13.728-9.349,16.427-3.042,1.358-6.537,1.422-9.584,2.765s-5.66,4.934-4.125,7.891a8.231,8.231,0,0,0,3.572,3.025q11.309,6.306,22.617,12.61c5.76,3.211,11.549,6.437,17.755,8.666,8.792,3.158,18.191,4.234,27.521,4.708a226.656,226.656,0,0,0,71.644-7.859c12.522-3.455,24.619-9.585,21.581-23.753-3.126-14.582-9.174-29.129-15.693-42.481-7.893-16.164-10.233-35.641-15.825-52.7-5.188-15.831-10.438-31.689-16.186-47.326-2.822-7.678-7.812-14.875-15.189-18.756C847.011,593.1,836.669,595.5,826.781,594.181Z" transform="translate(-711.74 -592.608)" fill="#fff"/>
          <g id="Grupo_9" data-name="Grupo 9" transform="translate(0 162.547)">
            <path id="Trazado_21" data-name="Trazado 21" d="M777.114,741.8q-3.259.175-6.516.348c-2.359.128-4.992.164-6.749-1.416-2.144-1.93-1.9-5.572-.167-7.876s4.533-3.531,7.28-4.411c6.631-2.125,13.641-2.78,20.6-3.053a4.985,4.985,0,0,1,2.065.213,4.261,4.261,0,0,1,2.148,2.8C799.72,740.393,785.553,741.352,777.114,741.8Z" transform="translate(-704.314 -638.181)" fill="#eacdb0"/>
            <g id="Grupo_8" data-name="Grupo 8">
              <path id="Trazado_22" data-name="Trazado 22" d="M828.67,758.61a5.233,5.233,0,0,1-.188,2.874,3.812,3.812,0,0,1-1.452,1.51c-4.479,2.855-10.5-.218-13.931-4.276s-5.75-9.189-10.125-12.2c-10.013-6.9-.846-19.525,9.616-16.628C824.8,733.269,827.367,747.943,828.67,758.61Z" transform="translate(-672.293 -634.582)" fill="#eacdb0"/>
              <g id="Grupo_7" data-name="Grupo 7">
                <path id="Trazado_23" data-name="Trazado 23" d="M752.942,738.029c-8.645-6.352-17.315-13.553-20.473-24.254s1.3-25.811,12.452-31.981c13.6-7.524,26.959,1.721,36.657,10.449,19.864,17.856,41.512,33.644,62.679,49.977,7.153,5.521,31.97,25.845,31.97,25.845.683,2.863-12.656,28.78-16.192,27.832C821.424,785.687,783.87,760.755,752.942,738.029Z" transform="translate(-731.478 -679.022)" fill="#1a3151"/>
                <path id="Trazado_24" data-name="Trazado 24" d="M901.9,745.258c8.464-4.121,16.98-9.085,20.326-18.981s-.457-26.184-10.944-35.252c-12.783-11.057-25.849-5.261-35.393.965-19.551,12.733-40.746,22.932-61.5,33.8-7.012,3.674-31.375,17.6-31.375,17.6-.741,2.69,11.235,32.1,14.647,32.064C834.922,775.23,871.615,760,901.9,745.258Z" transform="translate(-686.1 -673.94)" fill="#1a3151"/>
              </g>
            </g>
          </g>
          <path id="Trazado_25" data-name="Trazado 25" d="M801.775,744.48a242.277,242.277,0,0,1-23.9,10.078c-4.307,1.55-8.747,2.995-13.323,3.049-10.716.13-19.053-11.39-9.544-19.66a53.845,53.845,0,0,1,13.961-8.781c7.471-3.226,3.333,3.017,5.922,7.991,2.981,5.729,5.067,5.485,10.438,2.725,6.918-3.555,11.342-7.575,19.5-7.52,2.255.015,4.894.521,5.876,2.551a4.56,4.56,0,0,1-.916,4.761,12.936,12.936,0,0,1-4.185,2.9Q803.7,743.547,801.775,744.48Z" transform="translate(-714.415 -473.079)" fill="#1a3151"/>
        </g>
        <g id="Grupo_11" data-name="Grupo 11" transform="translate(42.401 120.118)">
          <path id="Trazado_26" data-name="Trazado 26" d="M733.374,706.544l109.668-34.48,135.632,6.979-76.733,33.845Z" transform="translate(-729.637 -590.562)" fill="#dddae8"/>
          <path id="Trazado_27" data-name="Trazado 27" d="M735.482,735.233l-4.094-106.5,167.624,4.2,4.84,113.887Z" transform="translate(-731.387 -628.735)" fill="#9ea6ad"/>
          <path id="Trazado_28" data-name="Trazado 28" d="M976.337,675.8l-73.984,29.63c-.092.036-.166.088-.252.132l.2-5.25-168.567-6.343-.357,9.482,166.919,6.283c.342,1.6,1.6,2.829,3.45,2.088q36.99-14.816,73.982-29.628C981.372,680.729,980.039,674.315,976.337,675.8Z" transform="translate(-729.637 -587.467)" fill="#9ea6ad"/>
        </g>
        <g id="Grupo_12" data-name="Grupo 12" transform="translate(184.427 63.683)">
          <path id="Trazado_29" data-name="Trazado 29" d="M826.187,677.681c-.809.564-1.719,1.243-1.8,2.246a3.105,3.105,0,0,0,.626,1.838,8.214,8.214,0,0,0,4.146,3.738c1.791.57,4.074-.186,4.7-2.007,1.763,2.769.113,6.568-2.221,8.841s-5.35,3.843-7.219,6.535a20.591,20.591,0,0,0-2.658,7.1,19.036,19.036,0,0,0,21.02-8.748,39.448,39.448,0,0,0,3.384-8.973q2.4-8.383,4.806-16.764c-4.183-2.914-7.943-7.061-12.96-5.09C834.157,667.909,829.9,675.087,826.187,677.681Z" transform="translate(-793.793 -539.573)" fill="#eacdb0"/>
          <path id="Trazado_30" data-name="Trazado 30" d="M868.86,673c6.156,11.911,11.687,24.6,12.08,38s-5.378,27.726-17.147,34.152c-3.269-7.21-9.653-12.53-13.675-19.35-10.233-17.352-3.271-40.026-9.734-59.107-3.583-10.581-10.955-19-17.285-27.988a120.854,120.854,0,0,1-8.984-14.676c-1.542-3.013-6.313-9.168-7.027-11.92a10.38,10.38,0,0,1,.662-5.8c1-3.013,2.577-6.269,5.588-7.279,3.258-1.095,6.721.938,9.253,3.26,9.038,8.288,14.506,22.711,21.5,32.923C852.6,647.653,861.919,659.571,868.86,673Z" transform="translate(-806.893 -598.733)" fill="#fff"/>
        </g>
      </g>
      <g id="Grupo_16" data-name="Grupo 16" transform="translate(121.131)">
        <g id="Grupo_15" data-name="Grupo 15" transform="translate(0 20.589)">
          <g id="Grupo_14" data-name="Grupo 14" transform="translate(12.38 19.683)">
            <path id="Trazado_31" data-name="Trazado 31" d="M815.142,639.98a6.466,6.466,0,0,1-1.179,1.1,16.49,16.49,0,0,1-6.586,2.325c-2.991.594-6.119,1.183-9.046.333-9.514-2.767-5.2-19.051-4.172-25.811-6.173-2.274-13.289-5.739-14.232-12.955a23.159,23.159,0,0,1,.5-6.9q2.472-14.189,4.94-28.379c.57-3.273,1.174-6.64,2.82-9.475,2.889-4.972,8.352-7.257,13.506-8.382,13.152-2.876,27.367-.087,37.34,9.2a21.171,21.171,0,0,1,6.158,9.146c1.725,5.673.228,12.022-1.273,17.934q-2.079,8.188-4.157,16.376c-1.593,6.277-3.856,13.425-9.3,15.906-2.891,1.317-6.267,1.042-8.9,2.947C816.043,627.341,818.772,635.623,815.142,639.98Z" transform="translate(-779.824 -550.752)" fill="#eacdb0"/>
          </g>
          <path id="Trazado_32" data-name="Trazado 32" d="M804.041,570.766a9.445,9.445,0,0,0-1.067,1.462c-1.6,2.72-1.584,6.156-3.164,8.89-2.5,4.33-8.491,6.031-10.283,10.7-1.465,3.82.48,8.124-.1,12.176-.634,4.424-4.27,8-4.706,12.407-.38,3.826.937,9.578,2.571,13.035-.506-1.07-6.853-2.005-8.282-3.329-2.188-2.028-2.278-3.045-2.5-5.8-.216-2.731.867-5.162.252-8.038-.754-3.531-3.172-6.5-3.487-10.163-.433-5,3.085-9.477,3.88-14.433,1.2-7.5-3.815-15.814-.053-22.416,2.2-3.875,6.77-5.715,9.791-8.993,2.293-2.49,3.6-5.707,5.419-8.562s4.5-5.54,7.866-5.837c1.873-.166,3.734.431,5.613.459,3.25.049,6.29-1.588,9.514-2,4.614-.591,11.352,5.312,13.133,9.48,1.77,4.138-.115,6.971-3.322,9.668C819.783,563.968,808.785,565.392,804.041,570.766Z" transform="translate(-773.242 -540.288)" fill="#ea584b"/>
        </g>
        <path id="Trazado_33" data-name="Trazado 33" d="M851.239,562.688c2.207,2.421,5.124,4.437,7.041,7.133,3.734,5.254,3.215,12.349,2.109,18.7-.987,5.654.466,11.151-1.326,16.89-1.2,3.854-3.679,7.5-7.353,9.177-4.573,2.09-10.932,1.3-13.641,5.54-2.94,4.6.965,11.937-3.049,15.641-2.216,2.045-5.682,1.71-8.485,2.82-3.126,1.236-5.193,4.153-7.453,6.644s-5.368,4.813-8.677,4.219c.876-5.039,1.529-9.04,4.6-13.192,1.785-2.419,6.452-6.6,4.214-10.065-1.294-2.763-5.336-4.39-4.842-7.4.231-1.413,1.452-2.41,2.462-3.427a17.534,17.534,0,0,0,4.417-15.37,22.8,22.8,0,0,0-8.788-13.679c-5.173-3.931-3.967-5.145-4.526-10.97-.515-5.359-3.143-7.122-7.319-9.879-3.749-2.477-4.853-3.771-5.589-7.895-.538-3.019-1.221-6.642,1.008-9.439,1.77-2.223,4.415-3.536,6.971-4.778,5.34-2.6,11.29-5.259,17.012-3.67,3.177.882,5.9,3.01,9.095,3.843,2.129.557,4.366.512,6.535.875a17.5,17.5,0,0,1,9.883,5.3c2.556,2.812,2.005,5.105,3.042,8.572A11.448,11.448,0,0,0,851.239,562.688Z" transform="translate(-754.522 -520.652)" fill="#f55f52"/>
        <path id="Trazado_34" data-name="Trazado 34" d="M819.44,548.15c.139-3.606,1.42-8.085,4.992-8.591,1.958-.278,3.864.843,5.841.839,4.213-.008,6.58-4.629,9.416-7.746a3.134,3.134,0,0,1,1.527-1.065,5.071,5.071,0,0,1,2.6.594c3.929,1.3,7.791-2.054,11.875-2.731a9.717,9.717,0,0,1,10.814,8.395c.181,2.1-.35,4.2-.205,6.305.585,8.508,11.7,14.32,10.315,22.736-.939,5.688-7.554,9.983-6.459,15.642.7,3.619,4.539,6.764,3.326,10.244-.781,2.238-3.549,3.313-5.867,2.81a10.212,10.212,0,0,1-5.637-4.087c-2.291-2.987-3.756-6.523-5.886-9.627s-5.239-5.9-8.993-6.181c-3.634-.273-7.4,1.842-10.8.54-2.724-1.042-4.309-3.978-6.935-5.244-2.457-1.187-5.355-.711-8.058-1.089s-5.7-2.428-5.231-5.116a6.858,6.858,0,0,0,.35-1.939c-.222-1.838-3.186-2.333-3.4-4.172,1.827-1.868,3.636-.7,5.2-3.3C819.432,553.345,819.351,550.415,819.44,548.15Z" transform="translate(-738.198 -529.342)" fill="#f55f52"/>
      </g>
    </g>
  </g>
</svg>
