<!-- Generated by IcoMoon.io -->
<svg version="1.1" xmlns="http://www.w3.org/2000/svg" width="512" height="512" viewBox="0 0 512 512">
<title></title>
<g id="icomoon-ignore">
</g>
<path fill="#F45E3E" d="M256 512c141.385 0 256-114.615 256-256s-114.615-256-256-256-256 114.615-256 256 114.615 256 256 256zM256 48c114.875 0 208 93.125 208 208s-93.125 208-208 208-208-93.125-208-208 93.125-208 208-208zM400 128c8.8 0 16 7.2 16 16v48c0 17.6-14.4 32-32 32h-64c-17.6 0-32-14.4-32-32h-64c0 17.6-14.4 32-32 32h-64c-17.6 0-32-14.4-32-32v-48c0-8.8 7.2-16 16-16h96c8.8 0 16 7.2 16 16v16h64v-16c0-8.8 7.2-16 16-16h96zM256 384c46.604 0 87.386-24.909 109.773-62.139l27.44 16.467c-27.983 46.535-78.958 77.672-137.213 77.672-24.229 0-47.192-5.398-67.77-15.041l16.581-27.639c15.677 6.857 32.982 10.68 51.189 10.68z"></path>
</svg>
