<svg xmlns="http://www.w3.org/2000/svg" width="300.796" height="368.537" viewBox="0 0 300.796 368.537">
  <g id="Grupo_116" data-name="Grupo 116" transform="translate(-1573.443 -2404.412)">
    <path id="Trazado_103" data-name="Trazado 103" d="M263.3,540.748c-14.377-16.582-32.574-30.892-38.313-51.816-4.194-15.291-.885-31.47.751-47.237s1.062-33.206-9.139-45.343c-8.406-10-21.682-14.342-34.455-17.09s-26.1-4.48-37.432-10.977c-18.405-10.55-14.737-28.5-24.617-44.246-11.086-17.665-36.881-40.2-58.99-28.465-23.414,12.423-19.7,50.147-4.13,66.8,10.331,11.051,23.559,21.65,25.079,36.7,2.289,22.659-23.672,43.058-16.529,64.683,5.273,15.972,25.407,21.464,35.347,35.029,9.838,13.425,7.855,32.232,2.063,47.833S88.02,576.641,84.419,592.884c-7.372,33.245,18.712,56.214,48.43,63.629,27.312,6.808,86.214,3.594,86.214,3.594,21.019-7.351,44.324-25.816,55.879-45.992a58.487,58.487,0,0,0,3.175-50.779C274.631,554.98,269.3,547.668,263.3,540.748Z" transform="translate(1591.783 2112.084)" fill="#fff"/>
    <path id="Trazado_104" data-name="Trazado 104" d="M56.568,303.413S157.134,458.755,168.076,631.239" transform="translate(1622.491 2140.099)" fill="none" stroke="#3a326b" stroke-linecap="round" stroke-linejoin="round" stroke-width="1"/>
    <g id="Grupo_98" data-name="Grupo 98" transform="translate(1573.443 2650.895)">
      <path id="Trazado_105" data-name="Trazado 105" d="M32.958,364.348a10.51,10.51,0,0,1,6.695-2.13c.219-.007.434-.011.649-.011,9.358,0,18.723,5.947,27.848,17.693a142.492,142.492,0,0,1,17.845,30.349,61.96,61.96,0,0,0-11.259-8.97,165.466,165.466,0,0,0-18.356-9.492c-4.783-2.226-9.732-4.526-14.377-7.143-3.771-2.123-7.922-4.829-10.137-8.8C29.907,372.337,29.78,367.078,32.958,364.348Z" transform="translate(-16.914 -362.207)" fill="#3a326b"/>
      <path id="Trazado_106" data-name="Trazado 106" d="M27.192,386.7a10.515,10.515,0,0,1,5.143-4.79q.286-.148.582-.286c8.458-4.007,19.467-2.635,32.737,4.074a142.674,142.674,0,0,1,29.118,19.8,61.95,61.95,0,0,0-14.014-3.287,165.032,165.032,0,0,0-20.656-.727c-5.273.035-10.73.074-16.049-.3-4.317-.307-9.227-.977-12.927-3.615C27.855,395.232,25.492,390.534,27.192,386.7Z" transform="translate(-26.625 -318.789)" fill="#3a326b"/>
      <path id="Trazado_107" data-name="Trazado 107" d="M33.1,408.613a7.185,7.185,0,0,1,.314-4.79c.049-.141.1-.279.155-.416,2.328-5.958,8.444-10.434,18.19-13.316a97.347,97.347,0,0,1,23.76-3.8,42.138,42.138,0,0,0-8.511,4.931,113.472,113.472,0,0,0-10.614,9.319c-2.607,2.49-5.3,5.065-8.127,7.372-2.289,1.87-5.044,3.838-8.12,4.261C37.426,412.546,34.047,411.315,33.1,408.613Z" transform="translate(-10.976 -301.345)" fill="#3a326b"/>
      <path id="Trazado_108" data-name="Trazado 108" d="M108.929,478.257s-.3-61.643-75.569-113.974" transform="translate(-9.605 -356.96)" fill="none" stroke="#fff" stroke-linecap="round" stroke-linejoin="round" stroke-width="0.78"/>
      <path id="Trazado_109" data-name="Trazado 109" d="M116.237,432.076s-23.118-49.52-85.769-49.52" transform="translate(-16.914 -310.779)" fill="none" stroke="#fff" stroke-linecap="round" stroke-linejoin="round" stroke-width="0.78"/>
      <path id="Trazado_110" data-name="Trazado 110" d="M71.964,386.467s-12.134-.885-37.47,18.229" transform="translate(-6.739 -300.912)" fill="none" stroke="#fff" stroke-linecap="round" stroke-linejoin="round" stroke-width="0.78"/>
    </g>
  </g>
</svg>
