<svg xmlns="http://www.w3.org/2000/svg" width="630.239" height="424.594" viewBox="0 0 630.239 424.594">
  <g id="Grupo_92" data-name="Grupo 92" transform="matrix(1, 0.017, -0.017, 1, -201.692, -219.036)">
    <path id="Trazado_90" data-name="Trazado 90" d="M766.07,520.375c-8.216-21.1-14.351-43.5-21.055-67.162-4.517-15.944-11.8-33.784-27.589-38.809-15.359-4.889-31.9,5.243-41.346,18.3s-14.208,28.893-22.289,42.84c-14.645,25.276-40.586,35.87-62.024,13.648-30.625-31.743-44.409-75.011-63.828-113.728-14.1-28.108-25.9-61.014-43.66-86.92-27.087-39.5-64.227-73.187-113.616-73.187-31.308,4.743-58.892,32.473-77.563,67.126s-29.558,75.867-38.839,116.98c-16.878,74.769-29.209,153.272-41.557,229.676l623.112-9.268c-2.476.029-17.757-20.392-20.683-23.224C791.206,573.5,776.848,548.048,766.07,520.375Z" transform="translate(0 0)" fill="#3a326b"/>
    <g id="Grupo_90" data-name="Grupo 90" transform="translate(559.988 407.347)">
      <path id="Trazado_91" data-name="Trazado 91" d="M455.482,449.7c-1.221,24.223-27.58,66.573-51.8,65.352s-37.14-45.551-35.919-69.775S394.777,299.832,419,301.053,456.7,425.474,455.482,449.7Z" transform="translate(-367.681 -301.044)" fill="#fff"/>
      <line id="Línea_1" data-name="Línea 1" x1="12.214" y2="196.305" transform="translate(37.942 15.757)" fill="none" stroke="#1a55b5" stroke-linecap="round" stroke-linejoin="round" stroke-width="0.867"/>
      <path id="Trazado_92" data-name="Trazado 92" d="M389.547,409.794a168.375,168.375,0,0,0-12.256,38.079c-1.288,6.717-2.1,13.995.941,20.123,3.321,6.69,10.688,10.591,18.059,11.8,18.005,2.955,36.015-8.073,46.569-22.957s15.124-33.078,19.321-50.835c3.3-13.981,6.547-28.171,12.771-41.2,2.669-5.586,18.3-27.147,10.905-32.74-10.112-7.945-39.381.7-58.137,21.171C412.271,370.1,398.98,389.073,389.547,409.794Z" transform="translate(-357.188 -266.185)" fill="#eba09a"/>
      <path id="Trazado_93" data-name="Trazado 93" d="M385.133,470.116s21.741-84.63,74.22-133.17" transform="translate(-346.029 -256.504)" fill="none" stroke="#3a326b" stroke-linecap="round" stroke-linejoin="round" stroke-width="0.867"/>
    </g>
    <g id="Grupo_91" data-name="Grupo 91" transform="translate(648.797 519.539)">
      <path id="Trazado_94" data-name="Trazado 94" d="M464.129,362.572c-1.862,3.336-5.348,5.608-8.514,7.392-3.9,2.2-8.062,4.132-12.079,6a139.1,139.1,0,0,0-15.422,7.974,52.023,52.023,0,0,0-9.458,7.535,119.7,119.7,0,0,1,14.992-25.5c7.665-9.865,15.532-14.864,23.392-14.864.182,0,.365,0,.547.009a8.83,8.83,0,0,1,5.624,1.79C465.881,355.21,465.776,359.628,464.129,362.572Z" transform="translate(-393.25 -351.116)" fill="#6157a0"/>
      <path id="Trazado_95" data-name="Trazado 95" d="M472.474,389.107c-3.11,2.216-7.235,2.778-10.86,3.036-4.468.318-9.052.285-13.484.258a138.338,138.338,0,0,0-17.351.609,51.9,51.9,0,0,0-11.772,2.76,119.816,119.816,0,0,1,24.458-16.628c11.149-5.637,20.4-6.789,27.5-3.426.166.078.327.159.488.242a8.838,8.838,0,0,1,4.32,4.024C477.207,383.2,475.221,387.149,472.474,389.107Z" transform="translate(-392.814 -322.929)" fill="#6157a0"/>
      <path id="Trazado_96" data-name="Trazado 96" d="M450.074,404.71c-2.586-.356-4.9-2.01-6.825-3.581-2.371-1.936-4.636-4.1-6.827-6.193a94.808,94.808,0,0,0-8.913-7.829,35.616,35.616,0,0,0-7.15-4.143,81.715,81.715,0,0,1,19.957,3.193c8.187,2.422,13.327,6.184,15.283,11.187.045.117.09.231.13.35a6.03,6.03,0,0,1,.262,4.026C455.2,403.991,452.357,405.024,450.074,404.71Z" transform="translate(-391.137 -311.604)" fill="#6157a0"/>
      <path id="Trazado_97" data-name="Trazado 97" d="M407.317,449.611s.249-51.785,63.485-95.75" transform="translate(-407.317 -347.711)" fill="none" stroke="#2a294f" stroke-linecap="round" stroke-linejoin="round" stroke-width="0.78"/>
      <path id="Trazado_98" data-name="Trazado 98" d="M407.317,419.629s19.419-41.6,72.053-41.6" transform="translate(-407.317 -317.729)" fill="none" stroke="#2a294f" stroke-linecap="round" stroke-linejoin="round" stroke-width="0.78"/>
      <path id="Trazado_99" data-name="Trazado 99" d="M420.1,383.2s10.193-.746,31.478,15.312" transform="translate(-391.456 -311.323)" fill="none" stroke="#2a294f" stroke-linecap="round" stroke-linejoin="round" stroke-width="0.78"/>
    </g>
  </g>
</svg>
