<svg xmlns="http://www.w3.org/2000/svg" width="366.003" height="665.736" viewBox="0 0 366.003 665.736">
  <g id="Grupo_114" data-name="Grupo 114" transform="translate(-176.497 -1108)">
    <g id="Grupo_97" data-name="Grupo 97" transform="translate(279.814 1190.932)">
      <path id="Trazado_100" data-name="Trazado 100" d="M243.9,389.045c24.934,11.069,25.065,29.017.3,40.084s-65.058,11.071-89.992,0-25.056-29.017-.288-40.086S218.969,377.976,243.9,389.045Z" transform="translate(0 0)" fill="#eba09a" opacity="0.6"/>
    </g>
    <g id="Grupo_96" data-name="Grupo 96" transform="translate(31.14 -140)">
      <g id="Grupo_95" data-name="Grupo 95" transform="translate(9.934 1393.559)" opacity="0.5">
        <path id="Trazado_100-2" data-name="Trazado 100" d="M402.236,401.163c61.329,27.226,61.65,71.371.73,98.592s-160.02,27.231-221.349.006-61.628-71.371-.708-98.6S340.918,373.937,402.236,401.163Z" transform="translate(0 0)" fill="#eba09a" opacity="0.6"/>
      </g>
      <g id="Grupo_78" data-name="Grupo 78" transform="translate(71.069 961.441)">
        <path id="Trazado_68" data-name="Trazado 68" d="M167.894,382.4s-6.353,15.2-6.077,24.034,4.694,12.155,4.694,12.155,16.574,4.419,21.549,4.694,21.268,13.263,33.148,14.089,27.07,4.419,28.729-4.97-58.565-46.686-58.565-46.686Z" transform="translate(68.758 442.983)" fill="#3b336c"/>
        <path id="Trazado_69" data-name="Trazado 69" d="M162.162,384.318s.933,8.433,8.433,7.967,14.055-8.433,14.055-8.433l-1.878,29.983s-4.217,44.977-17.333,49.66-15.927-20.144-15.927-20.144Z" transform="translate(11.928 449.69)" fill="#3b336c"/>
        <path id="Trazado_70" data-name="Trazado 70" d="M274.843,332.52l2.283,81.593-107.607,42.4-.731-48.575s-20.807-22.646-14.038-24.366,98.758-63.046,98.758-63.046Z" transform="translate(29.876 156.978)" fill="#eabd70"/>
        <path id="Trazado_71" data-name="Trazado 71" d="M181.72,300.995,194.274,315.1l34.415,111.623s1.978,8.982,1.825,10.505c-1.006,10.086-11.761,16.962-19.835,13.937s-37.027-74.515-37.027-74.515Z" transform="translate(123.505 66.722)" fill="#3b336c"/>
        <g id="Grupo_75" data-name="Grupo 75" transform="translate(227.561 501.669)">
          <path id="Trazado_72" data-name="Trazado 72" d="M183.784,655.119a22.747,22.747,0,0,1-5.178-.6,22.487,22.487,0,0,1-16.726-27.053l32.754-138.882,1.3-141.48a22.5,22.5,0,0,1,22.483-22.28h.214a22.494,22.494,0,0,1,22.28,22.7L239.589,491.51a22.651,22.651,0,0,1-.6,4.953L205.654,637.786A22.5,22.5,0,0,1,183.784,655.119Z" transform="translate(-161.273 -324.821)" fill="#eabd70"/>
        </g>
        <path id="Trazado_73" data-name="Trazado 73" d="M204.881,309.791s41.142-13.263,58.009-9.046,22.488,15.461,23.894,21.083-5.622,141.958-5.622,141.958-73.087,60.438-104.009,44.977c-22.331-11.165-24.136-23.8-23.416-29.954a75.592,75.592,0,0,0,.68-11.21l18.519-131.714Z" transform="translate(30.889 61.739)" fill="#4a427d"/>
        <path id="Trazado_74" data-name="Trazado 74" d="M242.934,340.922a40.99,40.99,0,1,1-25.384-52.111A40.993,40.993,0,0,1,242.934,340.922Z" transform="translate(75.114)" fill="#efc5b6"/>
        <path id="Trazado_75" data-name="Trazado 75" d="M210.506,298.285l-13.954,42.16h0a26.29,26.29,0,0,1-29.4,3.047h0a6.478,6.478,0,0,1-3.2-7.3l10.4-40.917Z" transform="translate(77.735 40.293)" fill="#efc5b6"/>
        <g id="Grupo_76" data-name="Grupo 76" transform="translate(163.564 529.664)">
          <path id="Trazado_76" data-name="Trazado 76" d="M172.407,648.1a22.716,22.716,0,0,1-4.644-.483,22.486,22.486,0,0,1-17.389-26.626l22.449-106.96,18.547-164.261a22.487,22.487,0,1,1,44.69,5.049L217.4,520.139q-.118,1.054-.337,2.091L194.4,630.225A22.5,22.5,0,0,1,172.407,648.1Z" transform="translate(-149.89 -329.8)" fill="#eabd70"/>
        </g>
        <path id="Trazado_77" data-name="Trazado 77" d="M238.089,329.358c2.148-.068,4.436-.3,6.128-1.636.073-.056.129-.141.2-.208a40.92,40.92,0,0,0-81.082-8.113,13.973,13.973,0,0,0,5.268,1.642c4.183.371,17.979-5.223,16.715-10.918q.928,4.174,1.85,8.354a9.911,9.911,0,0,0,6.016-7.292A60.745,60.745,0,0,0,238.089,329.358Z" transform="translate(75.833)" fill="#3a326b"/>
        <path id="Trazado_78" data-name="Trazado 78" d="M199.7,362.583h0a20.438,20.438,0,0,1-20.38-20.38h0a20.438,20.438,0,0,1,20.38-20.38h0a20.442,20.442,0,0,1,20.38,20.38h0A20.442,20.442,0,0,1,199.7,362.583Z" transform="translate(149.717 162.991)" fill="#3b336c"/>
        <path id="Trazado_79" data-name="Trazado 79" d="M186.414,306.322a12.478,12.478,0,1,1-7.725-15.865A12.48,12.48,0,0,1,186.414,306.322Z" transform="translate(70.286 14.844)" fill="#efc5b6"/>
        <path id="Trazado_80" data-name="Trazado 80" d="M215.11,337.558a15.143,15.143,0,1,1-15.146-15.146A15.144,15.144,0,0,1,215.11,337.558Z" transform="translate(175.143 165.713)" fill="#efc5b6"/>
        <path id="Trazado_81" data-name="Trazado 81" d="M153.728,450.436a18.4,18.4,0,0,0-.112,1.934v.315a18.587,18.587,0,0,0,.157,2.288l.028.219c.748,5.324,3.964,12.492,13.965,19.61l.006.006a164.434,164.434,0,0,0,17.316,7.831c24.8,3.019,64.682-23.6,84.337-38.157a74.366,74.366,0,0,0-5.009-10.294l-75.7-33.3-17.788-90.2-1.968-4.633,3.969,1.456L154.409,439.225A75.592,75.592,0,0,1,153.728,450.436Z" transform="translate(30.897 90.11)" fill="#3b336c"/>
        <path id="Trazado_82" data-name="Trazado 82" d="M206.231,383.829s39.377-77.939,29.538-82.156c0,0-34.756,7.82-41.783,23.281S144.9,440.572,147.008,453.925,162,471.977,196.454,481.057A417.989,417.989,0,0,0,254.8,492.234l1.282-14.764-63.974-38.241Z" transform="translate(0 69.856)" fill="#4a427d"/>
        <path id="Trazado_83" data-name="Trazado 83" d="M277.771,324.493l-75.937,6.055s-25.659,15.2-24.709,26.6,22.809,11.4,22.809,11.4l41.806,26.609Z" transform="translate(139.435 175.332)" fill="#ebefff"/>
        <path id="Trazado_84" data-name="Trazado 84" d="M206.027,330.891l30.191,2.648a57.612,57.612,0,0,1,39.321,20.633l12.206,14.73-120.6-13.544S178.474,325.191,206.027,330.891Z" transform="translate(93.429 201.592)" fill="#fff"/>
        <path id="Trazado_85" data-name="Trazado 85" d="M223.7,374.077a25.055,25.055,0,0,1,5.139-17.974C240.669,340.884,263.86,324.6,274.8,324.6l-71.833,5.47s-33.26,11.4-24.709,26.6,22.809,11.4,22.809,11.4Z" transform="translate(138.3 175.813)" fill="#fff"/>
        <g id="Grupo_77" data-name="Grupo 77" transform="translate(242.999 493.563)">
          <path id="Trazado_86" data-name="Trazado 86" d="M303.733,403.307,166.526,388.28a2.811,2.811,0,1,1,.607-5.589l133.525,14.617,40.9-72.5a2.812,2.812,0,1,1,4.9,2.766Z" transform="translate(-164.019 -323.379)" fill="#eba09a"/>
        </g>
        <path id="Trazado_87" data-name="Trazado 87" d="M192.454,346.079a15.143,15.143,0,1,1-15.14-15.146A15.142,15.142,0,0,1,192.454,346.079Z" transform="translate(70.425 205.098)" fill="#efc5b6"/>
        <path id="Trazado_88" data-name="Trazado 88" d="M259.351,356.986s-13.364-28.74-45.28-24.445-41.114,15.343-41.114,15.343Z" transform="translate(120.288 210.507)" fill="#ebefff"/>
      </g>
    </g>
  </g>
</svg>
