<svg xmlns="http://www.w3.org/2000/svg" width="147.006" height="46.544" viewBox="0 0 147.006 46.544">
  <path id="Trazado_35" data-name="Trazado 35" d="M284.687,363.77a21.821,21.821,0,0,0-9.833-9.185c-3.879-1.875-10.584-1.028-13.729-3.359a9.277,9.277,0,0,1-1.954-2.427,17.212,17.212,0,0,0-12.7-7.516c-2.609-.2-11.509,2.776-13.164.662A43.816,43.816,0,0,0,204.595,325.5c-15.107-1.943-31.245,3.541-36.961,18.413a31.324,31.324,0,0,0-4.32.2,26.74,26.74,0,0,0-12.882,4.694c-7.192,5.228-11.822,13.879-11.406,22.861H285.59A10.306,10.306,0,0,0,284.687,363.77Z" transform="translate(-139 -325.126)" fill="#4b437e"/>
</svg>
