<svg xmlns="http://www.w3.org/2000/svg" width="1699.006" height="626.852" viewBox="0 0 1699.006 626.852">
  <g id="Grupo_118" data-name="Grupo 118" transform="translate(-140 -176)">
    <path id="Trazado_35" data-name="Trazado 35" d="M284.687,363.77a21.821,21.821,0,0,0-9.833-9.185c-3.879-1.875-10.584-1.028-13.729-3.359a9.277,9.277,0,0,1-1.954-2.427,17.212,17.212,0,0,0-12.7-7.516c-2.609-.2-11.509,2.776-13.164.662A43.816,43.816,0,0,0,204.595,325.5c-15.107-1.943-31.245,3.541-36.961,18.413a31.324,31.324,0,0,0-4.32.2,26.74,26.74,0,0,0-12.882,4.694c-7.192,5.228-11.822,13.879-11.406,22.861H285.59A10.306,10.306,0,0,0,284.687,363.77Z" transform="translate(1 -149.126)" fill="#4b437e"/>
    <path id="Trazado_37" data-name="Trazado 37" d="M284.687,363.77a21.821,21.821,0,0,0-9.833-9.185c-3.879-1.875-10.584-1.028-13.729-3.359a9.277,9.277,0,0,1-1.954-2.427,17.212,17.212,0,0,0-12.7-7.516c-2.609-.2-11.509,2.776-13.164.662A43.816,43.816,0,0,0,204.595,325.5c-15.107-1.943-31.245,3.541-36.961,18.413a31.324,31.324,0,0,0-4.32.2,26.74,26.74,0,0,0-12.882,4.694c-7.192,5.228-11.822,13.879-11.406,22.861H285.59A10.306,10.306,0,0,0,284.687,363.77Z" transform="translate(1553 -101.126)" fill="#3e366f"/>
    <path id="Trazado_36" data-name="Trazado 36" d="M160.322,380.35a27.744,27.744,0,0,1,12.5-11.678c4.932-2.384,13.457-1.308,17.452-4.276a11.809,11.809,0,0,0,2.489-3.081,21.884,21.884,0,0,1,16.149-9.556c3.321-.249,14.638,3.529,16.737.841a55.7,55.7,0,0,1,36.506-20.9c19.2-2.47,39.727,4.5,46.99,23.411a39.193,39.193,0,0,1,5.5.253,34,34,0,0,1,16.38,5.968c9.145,6.647,15.031,17.647,14.5,29.067H159.168A13.125,13.125,0,0,1,160.322,380.35Z" transform="translate(498.356 412.456)" fill="#3b336c"/>
    <g id="Grupo_117" data-name="Grupo 117">
      <circle id="Elipse_2" data-name="Elipse 2" cx="59" cy="59" r="59" transform="translate(936 414)" fill="#f55f52"/>
      <g id="Grupo_22" data-name="Grupo 22" transform="translate(688 142.874)">
        <path id="Trazado_35-2" data-name="Trazado 35" d="M327.345,375.085a28.21,28.21,0,0,0-12.712-11.874c-5.015-2.424-13.683-1.33-17.75-4.343a11.994,11.994,0,0,1-2.526-3.138,22.252,22.252,0,0,0-16.425-9.717c-3.372-.253-14.879,3.589-17.018.856A56.645,56.645,0,0,0,223.8,325.613c-19.53-2.512-40.394,4.578-47.783,23.8a40.494,40.494,0,0,0-5.585.258,34.57,34.57,0,0,0-16.655,6.068c-9.3,6.758-15.284,17.943-14.745,29.555h189.48A13.324,13.324,0,0,0,327.345,375.085Z" transform="translate(0 0)" fill="#4b437e"/>
        <path id="Trazado_36-2" data-name="Trazado 36" d="M346.985,381.175A28.21,28.21,0,0,0,334.273,369.3c-5.015-2.424-13.682-1.33-17.745-4.348A12.008,12.008,0,0,1,314,361.82a22.251,22.251,0,0,0-16.42-9.717c-3.377-.253-14.883,3.589-17.018.856A56.637,56.637,0,0,0,243.441,331.7c-19.525-2.512-40.394,4.573-47.778,23.8a39.846,39.846,0,0,0-5.59.258,34.569,34.569,0,0,0-16.655,6.068c-9.3,6.758-15.284,17.943-14.741,29.555h189.48A13.345,13.345,0,0,0,346.985,381.175Z" transform="translate(70.732 21.928)" fill="#3b336c"/>
      </g>
    </g>
  </g>
</svg>
