<svg xmlns="http://www.w3.org/2000/svg" width="186.91" height="59.179" viewBox="0 0 186.91 59.179">
  <path id="Trazado_36" data-name="Trazado 36" d="M160.322,380.35a27.744,27.744,0,0,1,12.5-11.678c4.932-2.384,13.457-1.308,17.452-4.276a11.809,11.809,0,0,0,2.489-3.081,21.884,21.884,0,0,1,16.149-9.556c3.321-.249,14.638,3.529,16.737.841a55.7,55.7,0,0,1,36.506-20.9c19.2-2.47,39.727,4.5,46.99,23.411a39.193,39.193,0,0,1,5.5.253,34,34,0,0,1,16.38,5.968c9.145,6.647,15.031,17.647,14.5,29.067H159.168A13.125,13.125,0,0,1,160.322,380.35Z" transform="translate(-158.644 -331.216)" fill="#3b336c"/>
</svg>
