<svg xmlns="http://www.w3.org/2000/svg" width="1912.815" height="424.594" viewBox="0 0 1912.815 424.594">
  <g id="Grupo_119" data-name="Grupo 119" transform="translate(38.577 -2365.594)">
    <g id="Grupo_92" data-name="Grupo 92" transform="matrix(1, 0.017, -0.017, 1, -240.268, 2146.558)">
      <path id="Trazado_90" data-name="Trazado 90" d="M766.07,520.375c-8.216-21.1-14.351-43.5-21.055-67.162-4.517-15.944-11.8-33.784-27.589-38.809-15.359-4.889-31.9,5.243-41.346,18.3s-14.208,28.893-22.289,42.84c-14.645,25.276-40.586,35.87-62.024,13.648-30.625-31.743-44.409-75.011-63.828-113.728-14.1-28.108-25.9-61.014-43.66-86.92-27.087-39.5-64.227-73.187-113.616-73.187-31.308,4.743-58.892,32.473-77.563,67.126s-29.558,75.867-38.839,116.98c-16.878,74.769-29.209,153.272-41.557,229.676l623.112-9.268c-2.476.029-17.757-20.392-20.683-23.224C791.206,573.5,776.848,548.048,766.07,520.375Z" transform="translate(0 0)" fill="#3a326b"/>
      <g id="Grupo_90" data-name="Grupo 90" transform="translate(559.988 407.347)">
        <path id="Trazado_91" data-name="Trazado 91" d="M455.482,449.7c-1.221,24.223-27.58,66.573-51.8,65.352s-37.14-45.551-35.919-69.775S394.777,299.832,419,301.053,456.7,425.474,455.482,449.7Z" transform="translate(-367.681 -301.044)" fill="#fff"/>
        <line id="Línea_1" data-name="Línea 1" x1="12.214" y2="196.305" transform="translate(37.942 15.757)" fill="none" stroke="#1a55b5" stroke-linecap="round" stroke-linejoin="round" stroke-width="0.867"/>
        <path id="Trazado_92" data-name="Trazado 92" d="M389.547,409.794a168.375,168.375,0,0,0-12.256,38.079c-1.288,6.717-2.1,13.995.941,20.123,3.321,6.69,10.688,10.591,18.059,11.8,18.005,2.955,36.015-8.073,46.569-22.957s15.124-33.078,19.321-50.835c3.3-13.981,6.547-28.171,12.771-41.2,2.669-5.586,18.3-27.147,10.905-32.74-10.112-7.945-39.381.7-58.137,21.171C412.271,370.1,398.98,389.073,389.547,409.794Z" transform="translate(-357.188 -266.185)" fill="#eba09a"/>
        <path id="Trazado_93" data-name="Trazado 93" d="M385.133,470.116s21.741-84.63,74.22-133.17" transform="translate(-346.029 -256.504)" fill="none" stroke="#3a326b" stroke-linecap="round" stroke-linejoin="round" stroke-width="0.867"/>
      </g>
      <g id="Grupo_91" data-name="Grupo 91" transform="translate(648.797 519.539)">
        <path id="Trazado_94" data-name="Trazado 94" d="M464.129,362.572c-1.862,3.336-5.348,5.608-8.514,7.392-3.9,2.2-8.062,4.132-12.079,6a139.1,139.1,0,0,0-15.422,7.974,52.023,52.023,0,0,0-9.458,7.535,119.7,119.7,0,0,1,14.992-25.5c7.665-9.865,15.532-14.864,23.392-14.864.182,0,.365,0,.547.009a8.83,8.83,0,0,1,5.624,1.79C465.881,355.21,465.776,359.628,464.129,362.572Z" transform="translate(-393.25 -351.116)" fill="#6157a0"/>
        <path id="Trazado_95" data-name="Trazado 95" d="M472.474,389.107c-3.11,2.216-7.235,2.778-10.86,3.036-4.468.318-9.052.285-13.484.258a138.338,138.338,0,0,0-17.351.609,51.9,51.9,0,0,0-11.772,2.76,119.816,119.816,0,0,1,24.458-16.628c11.149-5.637,20.4-6.789,27.5-3.426.166.078.327.159.488.242a8.838,8.838,0,0,1,4.32,4.024C477.207,383.2,475.221,387.149,472.474,389.107Z" transform="translate(-392.814 -322.929)" fill="#6157a0"/>
        <path id="Trazado_96" data-name="Trazado 96" d="M450.074,404.71c-2.586-.356-4.9-2.01-6.825-3.581-2.371-1.936-4.636-4.1-6.827-6.193a94.808,94.808,0,0,0-8.913-7.829,35.616,35.616,0,0,0-7.15-4.143,81.715,81.715,0,0,1,19.957,3.193c8.187,2.422,13.327,6.184,15.283,11.187.045.117.09.231.13.35a6.03,6.03,0,0,1,.262,4.026C455.2,403.991,452.357,405.024,450.074,404.71Z" transform="translate(-391.137 -311.604)" fill="#6157a0"/>
        <path id="Trazado_97" data-name="Trazado 97" d="M407.317,449.611s.249-51.785,63.485-95.75" transform="translate(-407.317 -347.711)" fill="none" stroke="#2a294f" stroke-linecap="round" stroke-linejoin="round" stroke-width="0.78"/>
        <path id="Trazado_98" data-name="Trazado 98" d="M407.317,419.629s19.419-41.6,72.053-41.6" transform="translate(-407.317 -317.729)" fill="none" stroke="#2a294f" stroke-linecap="round" stroke-linejoin="round" stroke-width="0.78"/>
        <path id="Trazado_99" data-name="Trazado 99" d="M420.1,383.2s10.193-.746,31.478,15.312" transform="translate(-391.456 -311.323)" fill="none" stroke="#2a294f" stroke-linecap="round" stroke-linejoin="round" stroke-width="0.78"/>
      </g>
    </g>
    <g id="Grupo_116" data-name="Grupo 116">
      <path id="Trazado_103" data-name="Trazado 103" d="M263.3,540.748c-14.377-16.582-32.574-30.892-38.313-51.816-4.194-15.291-.885-31.47.751-47.237s1.062-33.206-9.139-45.343c-8.406-10-21.682-14.342-34.455-17.09s-26.1-4.48-37.432-10.977c-18.405-10.55-14.737-28.5-24.617-44.246-11.086-17.665-36.881-40.2-58.99-28.465-23.414,12.423-19.7,50.147-4.13,66.8,10.331,11.051,23.559,21.65,25.079,36.7,2.289,22.659-23.672,43.058-16.529,64.683,5.273,15.972,25.407,21.464,35.347,35.029,9.838,13.425,7.855,32.232,2.063,47.833S88.02,576.641,84.419,592.884c-7.372,33.245,18.712,56.214,48.43,63.629,27.312,6.808,86.214,3.594,86.214,3.594,21.019-7.351,44.324-25.816,55.879-45.992a58.487,58.487,0,0,0,3.175-50.779C274.631,554.98,269.3,547.668,263.3,540.748Z" transform="translate(1591.783 2112.084)" fill="#fff"/>
      <path id="Trazado_104" data-name="Trazado 104" d="M56.568,303.413S157.134,458.755,168.076,631.239" transform="translate(1622.491 2140.099)" fill="none" stroke="#3a326b" stroke-linecap="round" stroke-linejoin="round" stroke-width="1"/>
      <g id="Grupo_98" data-name="Grupo 98" transform="translate(1573.443 2650.895)">
        <path id="Trazado_105" data-name="Trazado 105" d="M32.958,364.348a10.51,10.51,0,0,1,6.695-2.13c.219-.007.434-.011.649-.011,9.358,0,18.723,5.947,27.848,17.693a142.492,142.492,0,0,1,17.845,30.349,61.96,61.96,0,0,0-11.259-8.97,165.466,165.466,0,0,0-18.356-9.492c-4.783-2.226-9.732-4.526-14.377-7.143-3.771-2.123-7.922-4.829-10.137-8.8C29.907,372.337,29.78,367.078,32.958,364.348Z" transform="translate(-16.914 -362.207)" fill="#3a326b"/>
        <path id="Trazado_106" data-name="Trazado 106" d="M27.192,386.7a10.515,10.515,0,0,1,5.143-4.79q.286-.148.582-.286c8.458-4.007,19.467-2.635,32.737,4.074a142.674,142.674,0,0,1,29.118,19.8,61.95,61.95,0,0,0-14.014-3.287,165.032,165.032,0,0,0-20.656-.727c-5.273.035-10.73.074-16.049-.3-4.317-.307-9.227-.977-12.927-3.615C27.855,395.232,25.492,390.534,27.192,386.7Z" transform="translate(-26.625 -318.789)" fill="#3a326b"/>
        <path id="Trazado_107" data-name="Trazado 107" d="M33.1,408.613a7.185,7.185,0,0,1,.314-4.79c.049-.141.1-.279.155-.416,2.328-5.958,8.444-10.434,18.19-13.316a97.347,97.347,0,0,1,23.76-3.8,42.138,42.138,0,0,0-8.511,4.931,113.472,113.472,0,0,0-10.614,9.319c-2.607,2.49-5.3,5.065-8.127,7.372-2.289,1.87-5.044,3.838-8.12,4.261C37.426,412.546,34.047,411.315,33.1,408.613Z" transform="translate(-10.976 -301.345)" fill="#3a326b"/>
        <path id="Trazado_108" data-name="Trazado 108" d="M108.929,478.257s-.3-61.643-75.569-113.974" transform="translate(-9.605 -356.96)" fill="none" stroke="#fff" stroke-linecap="round" stroke-linejoin="round" stroke-width="0.78"/>
        <path id="Trazado_109" data-name="Trazado 109" d="M116.237,432.076s-23.118-49.52-85.769-49.52" transform="translate(-16.914 -310.779)" fill="none" stroke="#fff" stroke-linecap="round" stroke-linejoin="round" stroke-width="0.78"/>
        <path id="Trazado_110" data-name="Trazado 110" d="M71.964,386.467s-12.134-.885-37.47,18.229" transform="translate(-6.739 -300.912)" fill="none" stroke="#fff" stroke-linecap="round" stroke-linejoin="round" stroke-width="0.78"/>
      </g>
    </g>
  </g>
</svg>
