<svg xmlns="http://www.w3.org/2000/svg" width="146.028" height="146.509" viewBox="0 0 146.028 146.509">
  <g id="Grupo_71" data-name="Grupo 71" transform="translate(-420.564 -206.938)">
    <g id="Grupo_60" data-name="Grupo 60" transform="translate(425.475 211.835)">
      <path id="Trazado_54" data-name="Trazado 54" d="M558.491,277.035c-.346.037.124-6.03-2.472-16.418a64.72,64.72,0,0,0-7.541-17.835A67.361,67.361,0,0,0,503.211,211.4c-10.947-1.868-23.306-1.516-35.066,2.962a62.756,62.756,0,0,0-16.873,9.1,60.971,60.971,0,0,0-14.089,14.17,66.385,66.385,0,0,0-.006,78.82,61.139,61.139,0,0,0,14.091,14.173,62.827,62.827,0,0,0,16.876,9.1c11.763,4.475,24.122,4.827,35.071,2.956a67.373,67.373,0,0,0,45.264-31.384,64.687,64.687,0,0,0,7.538-17.835c2.6-10.387,2.126-16.451,2.472-16.418a4.533,4.533,0,0,1,.042,1.1c-.017.833-.039,1.9-.068,3.226a31.466,31.466,0,0,1-.439,5.226,47.278,47.278,0,0,1-1.291,7.049,63.85,63.85,0,0,1-7.341,18.2,68.167,68.167,0,0,1-45.889,32.394c-11.2,1.986-23.866,1.685-35.957-2.863a64.246,64.246,0,0,1-17.36-9.285,62.672,62.672,0,0,1-14.519-14.53,68.1,68.1,0,0,1,.006-81.03,77.2,77.2,0,0,1,6.731-7.935,76.331,76.331,0,0,1,7.785-6.593,64.188,64.188,0,0,1,17.357-9.285c12.092-4.545,24.754-4.846,35.954-2.863a68.163,68.163,0,0,1,45.889,32.394,63.95,63.95,0,0,1,7.344,18.2,47.643,47.643,0,0,1,1.291,7.049,31.5,31.5,0,0,1,.439,5.229c.028,1.33.051,2.391.068,3.223A4.515,4.515,0,0,1,558.491,277.035Z" transform="translate(-422.31 -208.679)" fill="#3d356e"/>
    </g>
    <g id="Grupo_61" data-name="Grupo 61" transform="translate(420.564 206.938)">
      <path id="Trazado_55" data-name="Trazado 55" d="M566.553,280.191a5.315,5.315,0,0,1-.157-1.173c-.068-.878-.157-2.008-.27-3.437a36.111,36.111,0,0,0-.652-5.547,52.991,52.991,0,0,0-1.55-7.459,69.231,69.231,0,0,0-8.081-19.143,72.252,72.252,0,0,0-48.569-33.7c-11.754-2.008-25.016-1.634-37.639,3.173a67.293,67.293,0,0,0-18.116,9.76,65.538,65.538,0,0,0-15.129,15.211,71.939,71.939,0,0,0-13.917,42.3,76.5,76.5,0,0,0,3.687,22.586A69.375,69.375,0,0,0,436.382,322.5,81.844,81.844,0,0,0,443.4,330.8a80.509,80.509,0,0,0,8.117,6.911,67.32,67.32,0,0,0,18.119,9.763c12.626,4.8,25.891,5.178,37.645,3.17a72.27,72.27,0,0,0,48.566-33.7,69.252,69.252,0,0,0,8.078-19.14,53.039,53.039,0,0,0,1.55-7.456,36.141,36.141,0,0,0,.652-5.549c.113-1.426.2-2.56.27-3.437a5.356,5.356,0,0,1,.157-1.173,5.5,5.5,0,0,1,.037,1.176c-.02.883-.045,2.025-.079,3.457a33.518,33.518,0,0,1-.478,5.606,51.13,51.13,0,0,1-1.389,7.558,68.652,68.652,0,0,1-7.881,19.506A73.08,73.08,0,0,1,507.569,352.2c-12,2.124-25.576,1.8-38.534-3.074a68.84,68.84,0,0,1-18.6-9.954A67.127,67.127,0,0,1,434.878,323.6a71.1,71.1,0,0,1-10.519-20.237,78.442,78.442,0,0,1-3.794-23.185,73.619,73.619,0,0,1,14.319-43.408,83.006,83.006,0,0,1,7.212-8.5,81.846,81.846,0,0,1,8.342-7.065,68.751,68.751,0,0,1,18.6-9.948c12.955-4.874,26.529-5.2,38.528-3.074a73.065,73.065,0,0,1,49.2,34.7,68.564,68.564,0,0,1,7.884,19.509,51.13,51.13,0,0,1,1.389,7.558,33.518,33.518,0,0,1,.478,5.606c.034,1.434.059,2.576.079,3.457A5.479,5.479,0,0,1,566.553,280.191Z" transform="translate(-420.564 -206.938)" fill="#3d356e"/>
    </g>
    <g id="Grupo_62" data-name="Grupo 62" transform="translate(493.092 212.577)">
      <path id="Trazado_56" data-name="Trazado 56" d="M447.3,222.975c-.526,0-.951-3.142-.951-7.015s.425-7.018.951-7.018.953,3.142.953,7.018S447.829,222.975,447.3,222.975Z" transform="translate(-446.35 -208.943)" fill="#3d356e"/>
    </g>
    <g id="Grupo_63" data-name="Grupo 63" transform="translate(447.587 230.887)">
      <path id="Trazado_57" data-name="Trazado 57" d="M439.176,226.294c-.405.335-2.737-1.811-5.206-4.8s-4.143-5.676-3.738-6.011,2.737,1.811,5.206,4.8S439.584,225.959,439.176,226.294Z" transform="translate(-430.172 -215.453)" fill="#3d356e"/>
    </g>
    <g id="Grupo_64" data-name="Grupo 64" transform="translate(532.74 316.038)">
      <path id="Trazado_58" data-name="Trazado 58" d="M469.452,256.57c-.405.335-2.737-1.811-5.206-4.8s-4.146-5.676-3.738-6.014,2.734,1.811,5.206,4.8S469.857,256.236,469.452,256.57Z" transform="translate(-460.446 -245.727)" fill="#3d356e"/>
    </g>
    <g id="Grupo_65" data-name="Grupo 65" transform="translate(547.627 279.241)">
      <path id="Trazado_59" data-name="Trazado 59" d="M465.739,233.595c0-.526,3.142-.951,7.015-.951s7.015.425,7.015.951-3.139.953-7.015.953S465.739,234.121,465.739,233.595Z" transform="translate(-465.739 -232.644)" fill="#3d356e"/>
    </g>
    <g id="Grupo_66" data-name="Grupo 66" transform="translate(426.116 279.241)">
      <path id="Trazado_60" data-name="Trazado 60" d="M422.538,233.595c0-.526,3.139-.951,7.012-.951s7.015.425,7.015.951-3.139.953-7.015.953S422.538,234.121,422.538,233.595Z" transform="translate(-422.538 -232.644)" fill="#3d356e"/>
    </g>
    <g id="Grupo_67" data-name="Grupo 67" transform="translate(493.092 333.776)">
      <path id="Trazado_61" data-name="Trazado 61" d="M447.3,266.065c-.526,0-.951-3.145-.951-7.018s.425-7.015.951-7.015.953,3.139.953,7.015S447.829,266.065,447.3,266.065Z" transform="translate(-446.35 -252.033)" fill="#3d356e"/>
    </g>
    <g id="Grupo_68" data-name="Grupo 68" transform="translate(442.207 314.443)">
      <path id="Trazado_62" data-name="Trazado 62" d="M439.1,245.22c.335.405-1.811,2.734-4.8,5.2s-5.676,4.146-6.013,3.738,1.814-2.734,4.8-5.206S438.767,244.815,439.1,245.22Z" transform="translate(-428.259 -245.159)" fill="#3d356e"/>
    </g>
    <g id="Grupo_69" data-name="Grupo 69" transform="translate(531.836 231.792)">
      <path id="Trazado_63" data-name="Trazado 63" d="M470.965,215.835c.337.405-1.811,2.737-4.8,5.206s-5.676,4.143-6.011,3.738,1.809-2.737,4.8-5.206S470.631,215.43,470.965,215.835Z" transform="translate(-460.125 -215.775)" fill="#3d356e"/>
    </g>
    <g id="Grupo_70" data-name="Grupo 70" transform="translate(489.202 243.157)">
      <path id="Trazado_64" data-name="Trazado 64" d="M476.252,268.066c0,.225-3.235.433-8.641.6s-12.995.281-21.691.332L445,269l0-.934c-.009-2.866-.017-5.867-.025-8.956,0-10.854.1-20.676.276-27.789s.414-11.507.675-11.507.5,4.4.675,11.507.279,16.935.279,27.789c-.008,3.088-.017,6.089-.025,8.956l-.925-.928c8.7.051,16.283.169,21.691.332S476.252,267.841,476.252,268.066Z" transform="translate(-444.967 -219.815)" fill="#3d356e"/>
    </g>
  </g>
</svg>
