<!-- Generated by IcoMoon.io -->
<svg version="1.1" xmlns="http://www.w3.org/2000/svg" width="512" height="512" viewBox="0 0 512 512">
<title></title>
<g id="icomoon-ignore">
</g>
<path fill="rgb(140,140,140)" d="M256 512c141.385 0 256-114.615 256-256s-114.615-256-256-256-256 114.615-256 256 114.615 256 256 256zM256 48c114.875 0 208 93.125 208 208s-93.125 208-208 208-208-93.125-208-208 93.125-208 208-208zM128 160c0-17.673 14.327-32 32-32s32 14.327 32 32c0 17.673-14.327 32-32 32s-32-14.327-32-32zM320 160c0-17.673 14.327-32 32-32s32 14.327 32 32c0 17.673-14.327 32-32 32s-32-14.327-32-32zM352.049 313.63l41.164 24.698c-27.981 46.535-78.958 77.672-137.213 77.672s-109.232-31.137-137.213-77.672l41.164-24.698c19.587 32.574 55.271 54.37 96.049 54.37s76.462-21.796 96.049-54.37z"></path>
</svg>
