<svg width="3503" height="6531" viewBox="0 0 3503 6531" fill="none" xmlns="http://www.w3.org/2000/svg">
<path fill-rule="evenodd" clip-rule="evenodd" d="M933.862 2L514.362 0C514.362 92.9451 513.148 217.06 511.73 361.975V361.976C506.996 845.917 499.991 1561.82 528.362 2123.5C574.05 3028 844.862 3206.5 1018.36 3314.5C1112.32 3382.96 1351.21 3502.13 1704.86 3505.23V3145.5C1063.86 3125.77 953.725 2627.5 932.862 1998C912 1368.5 933.862 2 933.862 2ZM2476 2L2895.5 0C2895.5 92.9327 2896.71 217.027 2898.13 361.917L2898.13 361.975C2902.87 845.917 2909.87 1561.82 2881.5 2123.5C2835.81 3028 2565 3206.5 2391.5 3314.5C2297.54 3382.96 2058.65 3502.13 1705 3505.23V3145.5C2346 3125.77 2456.14 2627.5 2477 1998C2497.86 1368.5 2476 2 2476 2ZM3473.36 6531H69.8642C-71.1362 5497.5 -187.034 3702.72 1718.86 3727.5C3656.34 3752.69 3537.06 5563.76 3475.57 6497.39C3474.83 6508.72 3474.09 6519.93 3473.36 6531ZM402.864 6092H3125.36C3248.2 5456.83 3138.86 4184.5 1718.86 4176.5C298.864 4168.5 249.864 5450.17 402.864 6092Z" fill="#FF5C39"/>
</svg>
